<?xml version="1.0" encoding="utf-8"?>
<!-- Generator: Adobe Illustrator 22.1.0, SVG Export Plug-In . SVG Version: 6.00 Build 0)  -->
<svg version="1.0" id="Layer_1" xmlns="http://www.w3.org/2000/svg" xmlns:xlink="http://www.w3.org/1999/xlink" x="0px" y="0px"
	 viewBox="0 0 269.5 16.7" style="enable-background:new 0 0 269.5 16.7;" xml:space="preserve">
<style type="text/css">
	.st0{fill:#373839;}
	.st1{fill:#FFFFFF;}
</style>
<g>
	<g id="XMLID_1688_">
		<g>
			<path class="st0" d="M77.9,12.7h-8.2l-1.6,3.7h-2.6l7-15.8h2.7l7,15.8h-2.6L77.9,12.7z M70.7,10.5h6.2l-3.1-7.1L70.7,10.5z"/>
			<path class="st1" d="M73.8,3.4l-3.1,7.1h6.2L73.8,3.4z M73.8,3.4l-3.1,7.1h6.2L73.8,3.4z M65.5,16.4l7-15.8h2.7l7,15.8h-2.6
				l-1.6-3.7h-8.2l-1.6,3.7H65.5z M73.8,3.4l-3.1,7.1h6.2L73.8,3.4z"/>
			<path class="st0" d="M75.2,0.5h-2.7l-7,15.8h2.6l1.6-3.7h8.2l1.6,3.7h2.6L75.2,0.5z M70.7,10.5l3.1-7.1l3.1,7.1H70.7z"/>
		</g>
		<g>
			<path class="st0" d="M94.7,16.6c-2.4,0-4.4-0.8-6-2.3c-1.6-1.5-2.4-3.5-2.4-5.8c0-2.3,0.8-4.3,2.4-5.9c1.6-1.6,3.7-2.3,6.1-2.3
				c2.4,0,4.4,0.9,6.1,2.6l-1.6,1.7C98.7,3.8,98,3.3,97.3,3c-0.7-0.3-1.5-0.4-2.5-0.4c-1.7,0-3.1,0.6-4.2,1.6
				C89.6,5.2,89,6.6,89,8.3c0,1.7,0.6,3.1,1.7,4.2c1.1,1.1,2.5,1.7,4,1.7c1,0,1.8-0.2,2.5-0.5c0.7-0.3,1.3-0.8,2.1-1.5l1.6,1.6
				C99.1,15.6,97.1,16.6,94.7,16.6z"/>
			<path class="st1" d="M94.9,0.2c2.4,0,4.4,0.9,6.1,2.6l-1.6,1.7C98.7,3.8,98,3.3,97.3,3c-0.7-0.3-1.5-0.4-2.5-0.4
				c-1.7,0-3.1,0.6-4.2,1.6C89.6,5.2,89,6.6,89,8.3c0,1.7,0.6,3.1,1.7,4.2c1.1,1.1,2.5,1.7,4,1.7c1,0,1.8-0.2,2.5-0.5
				c0.7-0.3,1.3-0.8,2.1-1.5l1.6,1.6c-1.7,1.8-3.7,2.7-6,2.7c-2.4,0-4.4-0.8-6-2.3c-1.6-1.5-2.4-3.5-2.4-5.8c0-2.3,0.8-4.3,2.4-5.9
				C90.4,0.9,92.5,0.2,94.9,0.2z"/>
			<path class="st0" d="M99.2,12.2l1.6,1.6c-1.7,1.8-3.7,2.7-6,2.7c-2.4,0-4.4-0.8-6-2.3c-1.6-1.5-2.4-3.5-2.4-5.8
				c0-2.3,0.8-4.3,2.4-5.9c1.6-1.6,3.7-2.3,6.1-2.3c2.4,0,4.4,0.9,6.1,2.6l-1.6,1.7C98.7,3.8,98,3.3,97.3,3
				c-0.7-0.3-1.5-0.4-2.5-0.4c-1.7,0-3.1,0.6-4.2,1.6C89.6,5.2,89,6.6,89,8.3c0,1.7,0.6,3.1,1.7,4.2c1.1,1.1,2.5,1.7,4,1.7
				c1,0,1.8-0.2,2.5-0.5C97.8,13.4,98.5,12.9,99.2,12.2z"/>
		</g>
		<g>
			<path class="st0" d="M114.4,16.6c-2.4,0-4.4-0.8-6-2.3c-1.6-1.5-2.4-3.5-2.4-5.8c0-2.3,0.8-4.3,2.4-5.9c1.6-1.6,3.7-2.3,6.1-2.3
				c2.4,0,4.5,0.9,6.1,2.6l-1.6,1.7c-0.7-0.7-1.5-1.2-2.1-1.5c-0.7-0.3-1.5-0.4-2.4-0.4c-1.7,0-3.1,0.6-4.2,1.6
				c-1.1,1.1-1.7,2.5-1.7,4.1c0,1.7,0.6,3.1,1.7,4.2c1.1,1.1,2.5,1.7,4,1.7c1,0,1.8-0.2,2.5-0.5c0.6-0.3,1.3-0.8,2.1-1.5l1.6,1.6
				C118.8,15.6,116.8,16.6,114.4,16.6z"/>
			<path class="st1" d="M114.6,0.2c2.4,0,4.5,0.9,6.1,2.6l-1.6,1.7c-0.7-0.7-1.5-1.2-2.1-1.5c-0.7-0.3-1.5-0.4-2.4-0.4
				c-1.7,0-3.1,0.6-4.2,1.6c-1.1,1.1-1.7,2.5-1.7,4.1c0,1.7,0.6,3.1,1.7,4.2c1.1,1.1,2.5,1.7,4,1.7c1,0,1.8-0.2,2.5-0.5
				c0.6-0.3,1.3-0.8,2.1-1.5l1.6,1.6c-1.7,1.8-3.7,2.7-6,2.7c-2.4,0-4.4-0.8-6-2.3c-1.6-1.5-2.4-3.5-2.4-5.8c0-2.3,0.8-4.3,2.4-5.9
				C110.1,0.9,112.2,0.2,114.6,0.2z"/>
			<path class="st0" d="M118.9,12.2l1.6,1.6c-1.7,1.8-3.7,2.7-6,2.7c-2.4,0-4.4-0.8-6-2.3c-1.6-1.5-2.4-3.5-2.4-5.8
				c0-2.3,0.8-4.3,2.4-5.9c1.6-1.6,3.7-2.3,6.1-2.3c2.4,0,4.5,0.9,6.1,2.6l-1.6,1.7c-0.7-0.7-1.5-1.2-2.1-1.5
				c-0.7-0.3-1.5-0.4-2.4-0.4c-1.7,0-3.1,0.6-4.2,1.6c-1.1,1.1-1.7,2.5-1.7,4.1c0,1.7,0.6,3.1,1.7,4.2c1.1,1.1,2.5,1.7,4,1.7
				c1,0,1.8-0.2,2.5-0.5C117.5,13.4,118.2,12.9,118.9,12.2z"/>
		</g>
		<g>
			<path class="st0" d="M138.1,16.4h-11.3V0.5h11v2.3h-8.6v4.5h7.7v2.2h-7.7v4.6h8.8V16.4z"/>
			<path class="st1" d="M138.1,16.4h-11.3V0.5h11v2.3h-8.6v4.5h7.7v2.2h-7.7v4.6h8.8V16.4z"/>
			<polygon class="st0" points="138.1,14.1 138.1,16.4 126.8,16.4 126.8,0.5 137.9,0.5 137.9,2.8 129.3,2.8 129.3,7.3 137,7.3 
				137,9.5 129.3,9.5 129.3,14.1 			"/>
		</g>
		<g>
			<polygon class="st0" points="154.4,14 154.4,16.4 144.6,16.4 144.6,0.5 147.1,0.5 147.1,14 			"/>
		</g>
		<g>
			<path class="st1" d="M171.7,16.4h-11.3V0.5h11v2.3h-8.6v4.5h7.7v2.2h-7.7v4.6h8.8V16.4z"/>
			<polygon class="st0" points="171.7,14.1 171.7,16.4 160.4,16.4 160.4,0.5 171.4,0.5 171.4,2.8 162.9,2.8 162.9,7.3 170.6,7.3 
				170.6,9.5 162.9,9.5 162.9,14.1 			"/>
		</g>
		<g>
			<path class="st0" d="M187.2,10.6l0.2-0.1c2.3-0.7,3.4-2.3,3.4-4.9c0-1.8-0.5-3.1-1.5-3.9c-1-0.8-2.8-1.2-5.2-1.2h-5.9v15.8h2.5
				V11h3.8l3.8,5.4h3.1L187.2,10.6z M184.2,8.8h-3.5v-6h3.6c1.5,0,2.5,0.2,3.1,0.6c0.6,0.4,0.9,1.2,0.9,2.3c0,1.1-0.3,1.9-0.9,2.4
				C186.8,8.5,185.7,8.8,184.2,8.8z"/>
		</g>
		<g>
			<path class="st0" d="M208,12.7h-8.2l-1.6,3.7h-2.6l7-15.8h2.7l7,15.8h-2.6L208,12.7z M200.8,10.5h6.2l-3.1-7.1L200.8,10.5z"/>
			<path class="st1" d="M203.9,3.4l-3.1,7.1h6.2L203.9,3.4z M203.9,3.4l-3.1,7.1h6.2L203.9,3.4z M195.5,16.4l7-15.8h2.7l7,15.8h-2.6
				l-1.6-3.7h-8.2l-1.6,3.7H195.5z M203.9,3.4l-3.1,7.1h6.2L203.9,3.4z"/>
			<path class="st0" d="M205.3,0.5h-2.7l-7,15.8h2.6l1.6-3.7h8.2l1.6,3.7h2.6L205.3,0.5z M200.8,10.5l3.1-7.1l3.1,7.1H200.8z"/>
		</g>
		<g>
			<path class="st0" d="M228.2,2.8h-4.9v13.6h-2.5V2.8H216V0.5h12.2V2.8z"/>
			<path class="st1" d="M228.2,2.8h-4.9v13.6h-2.5V2.8H216V0.5h12.2V2.8z"/>
			<polygon class="st0" points="228.2,0.5 228.2,2.8 223.4,2.8 223.4,16.4 220.9,16.4 220.9,2.8 216,2.8 216,0.5 			"/>
		</g>
		<g>
			<path class="st0" d="M247.4,14.2c-1.6,1.6-3.6,2.3-5.9,2.3c-2.3,0-4.3-0.8-5.9-2.3c-1.6-1.6-2.4-3.5-2.4-5.8
				c0-2.3,0.8-4.3,2.4-5.9c1.6-1.6,3.6-2.3,5.9-2.3c2.3,0,4.3,0.8,5.9,2.3c1.6,1.6,2.4,3.5,2.4,5.9C249.8,10.7,249,12.6,247.4,14.2z
				 M241.5,2.4c-1.6,0-3,0.6-4.1,1.7c-1.1,1.2-1.7,2.6-1.7,4.2c0,1.6,0.6,3.1,1.7,4.2c1.1,1.1,2.5,1.7,4.1,1.7s3-0.6,4.1-1.7
				c1.1-1.2,1.7-2.6,1.7-4.2c0-1.7-0.6-3.1-1.7-4.2C244.5,3,243.1,2.4,241.5,2.4z"/>
			<path class="st1" d="M245.6,4.1c-1.1-1.2-2.5-1.7-4.1-1.7s-3,0.6-4.1,1.7c-1.1,1.2-1.7,2.6-1.7,4.2c0,1.6,0.6,3.1,1.7,4.2
				c1.1,1.1,2.5,1.7,4.1,1.7s3-0.6,4.1-1.7c1.1-1.2,1.7-2.6,1.7-4.2C247.3,6.7,246.7,5.3,245.6,4.1z M245.6,4.1
				c-1.1-1.2-2.5-1.7-4.1-1.7s-3,0.6-4.1,1.7c-1.1,1.2-1.7,2.6-1.7,4.2c0,1.6,0.6,3.1,1.7,4.2c1.1,1.1,2.5,1.7,4.1,1.7
				s3-0.6,4.1-1.7c1.1-1.2,1.7-2.6,1.7-4.2C247.3,6.7,246.7,5.3,245.6,4.1z M241.5,16.5c-2.3,0-4.3-0.8-5.9-2.3
				c-1.6-1.6-2.4-3.5-2.4-5.8c0-2.3,0.8-4.3,2.4-5.9c1.6-1.6,3.6-2.3,5.9-2.3c2.3,0,4.3,0.8,5.9,2.3c1.6,1.6,2.4,3.5,2.4,5.9
				c0,2.3-0.8,4.3-2.4,5.8C245.8,15.7,243.8,16.5,241.5,16.5z M241.5,2.4c-1.6,0-3,0.6-4.1,1.7c-1.1,1.2-1.7,2.6-1.7,4.2
				c0,1.6,0.6,3.1,1.7,4.2c1.1,1.1,2.5,1.7,4.1,1.7s3-0.6,4.1-1.7c1.1-1.2,1.7-2.6,1.7-4.2c0-1.7-0.6-3.1-1.7-4.2
				C244.5,3,243.1,2.4,241.5,2.4z"/>
			<path class="st0" d="M247.4,2.5c-1.6-1.6-3.6-2.3-5.9-2.3c-2.4,0-4.3,0.8-5.9,2.3c-1.6,1.6-2.4,3.5-2.4,5.9
				c0,2.3,0.8,4.3,2.4,5.8c1.6,1.6,3.6,2.3,5.9,2.3c2.3,0,4.3-0.8,5.9-2.3c1.6-1.6,2.4-3.5,2.4-5.8C249.8,6,249,4.1,247.4,2.5z
				 M245.6,12.6c-1.1,1.1-2.5,1.7-4.1,1.7s-3-0.6-4.1-1.7c-1.1-1.2-1.7-2.6-1.7-4.2c0-1.7,0.6-3.1,1.7-4.2c1.1-1.2,2.5-1.7,4.1-1.7
				s3,0.6,4.1,1.7c1.1,1.2,1.7,2.6,1.7,4.2C247.3,10,246.7,11.4,245.6,12.6z"/>
		</g>
		<g>
			<path class="st0" d="M262.5,11h-3.8v5.4h-2.5V0.5h5.9c2.4,0,4.2,0.4,5.2,1.2c1,0.8,1.5,2.1,1.5,3.9c0,2.6-1.1,4.2-3.4,4.9
				l-0.2,0.1l4.2,5.8h-3.1L262.5,11z M266.3,5.6c0-1.1-0.3-1.8-0.9-2.3c-0.6-0.4-1.6-0.6-3.1-0.6h-3.6v6h3.5c1.6,0,2.6-0.2,3.2-0.8
				C266,7.5,266.3,6.7,266.3,5.6z"/>
			<path class="st1" d="M265.4,3.4c-0.6-0.4-1.6-0.6-3.1-0.6h-3.6v6h3.5c1.6,0,2.6-0.2,3.2-0.8c0.6-0.5,0.9-1.3,0.9-2.4
				C266.3,4.5,266,3.8,265.4,3.4z M265.4,3.4c-0.6-0.4-1.6-0.6-3.1-0.6h-3.6v6h3.5c1.6,0,2.6-0.2,3.2-0.8c0.6-0.5,0.9-1.3,0.9-2.4
				C266.3,4.5,266,3.8,265.4,3.4z M258.7,16.4h-2.5V0.5h5.9c2.4,0,4.2,0.4,5.2,1.2c1,0.8,1.5,2.1,1.5,3.9c0,2.6-1.1,4.2-3.4,4.9
				l-0.2,0.1l4.2,5.8h-3.1l-3.8-5.4h-3.8V16.4z M266.3,5.6c0-1.1-0.3-1.8-0.9-2.3c-0.6-0.4-1.6-0.6-3.1-0.6h-3.6v6h3.5
				c1.6,0,2.6-0.2,3.2-0.8C266,7.5,266.3,6.7,266.3,5.6z"/>
			<path class="st0" d="M265.3,10.6l0.2-0.1c2.3-0.7,3.4-2.3,3.4-4.9c0-1.8-0.5-3.1-1.5-3.9c-1-0.8-2.8-1.2-5.2-1.2h-5.9v15.8h2.5
				V11h3.8l3.8,5.4h3.1L265.3,10.6z M262.2,8.8h-3.5v-6h3.6c1.5,0,2.5,0.2,3.1,0.6c0.6,0.4,0.9,1.2,0.9,2.3c0,1.1-0.3,1.9-0.9,2.4
				C264.9,8.5,263.8,8.8,262.2,8.8z"/>
		</g>
	</g>
	<g>
		<g id="XMLID_1683_">
			<polygon id="XMLID_1686_" class="st0" points="10.2,3.5 15,3.5 15,0.4 1.9,0.4 1.9,3.5 6.7,3.5 6.7,16.3 10.2,16.3 			"/>
			<polygon id="XMLID_1685_" class="st0" points="30.4,16.3 33.9,16.3 33.9,0.4 30.4,0.4 30.4,7 23.2,7 23.2,0.4 19.7,0.4 
				19.7,16.3 23.2,16.3 23.2,10 30.4,10 			"/>
			<path id="XMLID_1684_" class="st0" d="M50.7,5.1l2-2.6c-0.8-0.7-1.8-1.3-2.9-1.7c-1.1-0.4-2.3-0.6-3.4-0.6
				c-1.6,0-3.1,0.4-4.4,1.1c-1.3,0.7-2.3,1.7-3.1,2.9c-0.8,1.2-1.1,2.6-1.1,4.1c0,1.5,0.4,2.9,1.1,4.2c0.7,1.2,1.7,2.2,3,2.9
				c1.3,0.7,2.7,1.1,4.3,1.1c1.1,0,2.2-0.2,3.4-0.6c1.2-0.4,2.2-0.9,3-1.5V8.3h-3.1v4.2c-0.5,0.3-1,0.5-1.6,0.6
				c-0.5,0.2-1,0.2-1.5,0.2c-0.9,0-1.8-0.2-2.5-0.7c-0.8-0.4-1.4-1.1-1.8-1.8c-0.4-0.8-0.7-1.6-0.7-2.6c0-0.9,0.2-1.8,0.7-2.5
				c0.4-0.8,1-1.4,1.8-1.8c0.8-0.4,1.6-0.7,2.5-0.7c0.8,0,1.5,0.2,2.3,0.5C49.4,4.1,50.1,4.5,50.7,5.1"/>
		</g>
	</g>
</g>
</svg>
